<svg xmlns="http://www.w3.org/2000/svg" width="113.855" height="113.855" viewBox="0 0 113.855 113.855"><defs><style>.a{fill:#c10d19;}.b{fill:#8b8b8b;}</style></defs><g transform="translate(-1 -1)"><path class="a" d="M60.873,37A23.873,23.873,0,1,0,84.746,60.873,23.873,23.873,0,0,0,60.873,37ZM72.552,72.552a16.527,16.527,0,0,1-23.359,0,1.836,1.836,0,0,1,2.589-2.5,12.855,12.855,0,0,0,18.272,0,1.836,1.836,0,0,1,2.589,2.589Z" transform="translate(30.109 30.109)"/><path class="a" d="M69.927,13H18.509A5.509,5.509,0,0,0,13,18.509V47.891A5.509,5.509,0,0,0,18.509,53.4H37.956L52.1,67.559a1.836,1.836,0,0,0,3.14-1.3V53.4H69.927a5.509,5.509,0,0,0,5.509-5.509V18.509A5.509,5.509,0,0,0,69.927,13ZM25.855,27.691H62.582a1.836,1.836,0,0,1,0,3.673H25.855a1.836,1.836,0,1,1,0-3.673ZM64.418,40.546h-40.4a1.836,1.836,0,0,1,0-3.673h40.4a1.836,1.836,0,1,1,0,3.673Z" transform="translate(10.036 10.036)"/><g transform="translate(1 1)"><path class="b" d="M24.873,25A23.873,23.873,0,1,0,48.746,48.873,23.873,23.873,0,0,0,24.873,25Zm0,44.073a20.2,20.2,0,1,1,20.2-20.2,20.2,20.2,0,0,1-20.2,20.2Z" transform="translate(-1 19.073)"/><path class="b" d="M28.66,43.292a12.855,12.855,0,0,1-18.18,0,1.836,1.836,0,0,0-2.589,2.589,16.527,16.527,0,0,0,23.359,0,1.836,1.836,0,1,0-2.589-2.589Z" transform="translate(4.394 33.835)"/><path class="b" d="M73.927,1H22.509A5.509,5.509,0,0,0,17,6.509V35.891A5.509,5.509,0,0,0,22.509,41.4H37.2V54.255a1.836,1.836,0,0,0,3.14,1.3L54.48,41.4H73.927a5.509,5.509,0,0,0,5.509-5.509V6.509A5.509,5.509,0,0,0,73.927,1Zm1.836,34.891a1.836,1.836,0,0,1-1.836,1.836h-20.2a1.836,1.836,0,0,0-1.3.533L40.873,49.829V39.564a1.836,1.836,0,0,0-1.836-1.836H22.509a1.836,1.836,0,0,1-1.836-1.836V6.509a1.836,1.836,0,0,1,1.836-1.836H73.927a1.836,1.836,0,0,1,1.836,1.836Z" transform="translate(12.382 -1)"/><path class="b" d="M64.237,8h-40.4a1.836,1.836,0,1,0,0,3.673h40.4a1.836,1.836,0,1,0,0-3.673Z" transform="translate(16.564 4.855)"/><path class="b" d="M64.237,13h-40.4a1.836,1.836,0,1,0,0,3.673h40.4a1.836,1.836,0,1,0,0-3.673Z" transform="translate(16.564 9.036)"/></g></g></svg>