<svg xmlns="http://www.w3.org/2000/svg" width="29.523" height="29.523" viewBox="0 0 29.523 29.523"><defs><style>.a{fill:#fff;}</style></defs><path class="a" d="M14.761,0A14.761,14.761,0,1,0,29.523,14.761,14.763,14.763,0,0,0,14.761,0ZM21.5,11.509q.01.218.01.438a9.575,9.575,0,0,1-9.64,9.64h0a9.59,9.59,0,0,1-5.193-1.522,6.891,6.891,0,0,0,.808.047,6.8,6.8,0,0,0,4.208-1.45,3.392,3.392,0,0,1-3.165-2.353,3.377,3.377,0,0,0,1.53-.058,3.389,3.389,0,0,1-2.718-3.321c0-.015,0-.029,0-.043a3.365,3.365,0,0,0,1.535.424A3.391,3.391,0,0,1,7.827,8.787a9.619,9.619,0,0,0,6.984,3.54,3.39,3.39,0,0,1,5.774-3.09,6.8,6.8,0,0,0,2.152-.822,3.4,3.4,0,0,1-1.49,1.874,6.757,6.757,0,0,0,1.946-.534,6.886,6.886,0,0,1-1.69,1.755Zm0,0"/></svg>