<svg xmlns="http://www.w3.org/2000/svg" width="168.643" height="33.53" viewBox="0 0 168.643 33.53"><defs><style>.a{fill:#fff;}</style></defs><g transform="translate(-524.462 -30.717)"><g transform="translate(524.462 30.717)"><g transform="translate(0)"><path class="a" d="M5.1,64.555V62.6H16.734v1.955l-5.155.52H10.144Zm5.644,17.309v2.459H5.1V82.368l5.029-.52ZM7.338,62.6h6.794c-.095,3.358-.095,6.842-.095,10.341V74.47c0,2.964,0,6.432.095,9.868H7.354c.095-3.358.095-6.842.095-9.38V72.91c0-3.421,0-6.9-.11-10.31ZM22.961,77.686l-.331,6.637H10.744v-2h10.8l-2.806,2,1.308-6.637Z" transform="translate(-5.1 -58.202)"/><path class="a" d="M132.809,101.183c1.371-.363,3.831-1.009,5.391-1.4v1.466a29.555,29.555,0,0,0-4.3,1.34,3.623,3.623,0,0,0-2.175,3.326c0,1.624.772,2.428,1.734,2.428a2.643,2.643,0,0,0,1.561-.709l1.624-1.214.3.394-1.561,1.734c-1.466,1.592-2.475,2.664-5.044,2.664A4,4,0,0,1,126,106.921C125.984,104.336,127.418,102.617,132.809,101.183Zm2.049,6.9V99.465c0-2.838-.441-3.736-2.538-3.736a14.326,14.326,0,0,0-3.169.426l2.664-1.4v2.081c0,2.7-1.293,3.736-2.727,3.736a2.378,2.378,0,0,1-2.538-1.8c0-2.869,2.759-4.871,8.134-4.871,4.6,0,6.29,1.907,6.29,6.463v7.646a.526.526,0,0,0,.473.568h.095c.268,0,.52-.142.9-.741l.962.52c-.8,2.034-2.081,2.838-4.461,2.838S135.253,110.09,134.859,108.088Z" transform="translate(-106.941 -84.568)"/><path class="a" d="M305.671,69.739c0,7.819-5.092,11.539-10.735,11.539S284.2,77.574,284.2,69.739,289.323,58.2,294.935,58.2,305.671,61.92,305.671,69.739Zm-10.735,9.521c2.838,0,3.894-3.768,3.894-9.506s-1.04-9.537-3.894-9.537-3.894,3.831-3.894,9.537S292.114,79.261,294.935,79.261Z" transform="translate(-240.203 -54.495)"/><path class="a" d="M431.892,101.693c0-1.829-.031-2.4-.095-3.736l-1.8-.315V96.286L437.3,94l.568.3.2,2.506.173.662v10.5l-.095.52v2.034c0,2.034.032,4.461.095,7.661h-6.432c.063-3.2.095-5.644.095-7.661Zm8.071,14.739v1.734h-9.632v-1.734l2.964-.662H437.5Zm-.173-19.122c-1.97,0-3.405,2.333-3.973,2.964l-.3-.52c1.892-3.831,4.13-5.722,7.33-5.722,3.642,0,6.605,2.869,6.605,8.576,0,5.47-3.531,8.733-7.236,8.733-3.358,0-5-2-6.369-5.439l.3-.631c1.23,1.7,1.97,2.869,3.641,2.869,1.766,0,2.932-1.734,2.932-5.533S441.555,97.31,439.789,97.31Z" transform="translate(-363.019 -84.652)"/><path class="a" d="M563.5,69.7c.063-1.5.095-4.934.095-7V61.107c0-1.829-.031-2.869-.095-4.193l-1.8-.315V55.243l7.724-2.286.6.363-.095,4.966v4.43c0,2.081.032,5.5.095,7Zm7.866-1.687v1.7h-9.3v-1.7l2.869-.662h3.232Zm-7.724-19.894a3.073,3.073,0,1,1,2.853,2.853A3.092,3.092,0,0,1,563.639,48.118Z" transform="translate(-473.958 -43.594)"/><path class="a" d="M631.2,110.757c.063-1.5.095-4.934.095-7v-2.081c0-1.829-.032-2.4-.095-3.736l-1.8-.3V96.286L636.778,94l.6.363L637.645,98v5.754c0,2.081.031,5.5.095,7Zm7.74-1.687v1.7h-9.206v-1.7l2.869-.662h3.263Zm8.686-9.506v4.193c0,2.128.031,5.5.095,7h-6.526c.063-1.5.095-4.871.095-7V99.99c0-1.766-.426-2.428-1.5-2.428a5.563,5.563,0,0,0-3.8,2.506H634.7V97.657h2.475l-1.214,1.072C638.59,94.867,640.2,94,642.594,94c2.9.016,5.029,1.939,5.029,5.565Zm-1.8,8.875,3.232.662v1.7h-9.206v-1.718l2.759-.662Z" transform="translate(-530.985 -84.652)"/><path class="a" d="M763.2,69.531c.063-1.5.095-4.934.095-7V60.94c0-1.829-.032-2.869-.095-4.193l-1.8-.315V55.075l7.74-2.286.6.363-.095,4.966v4.43c0,2.081.032,5.5.095,7Zm7.866-1.687v1.7h-9.3v-1.7l2.869-.662h3.232Zm-7.74-19.894a3.071,3.071,0,1,1,2.885,2.885A3.06,3.06,0,0,1,763.323,47.95Z" transform="translate(-642.177 -43.426)"/><path class="a" d="M830.9,52.576c0-4.966,3.641-8.544,8.8-8.544s8.8,3.468,8.8,8.544-3.121,8.765-8.8,8.765S830.9,57.542,830.9,52.576Zm10.94.11c0-4.84-.662-6.81-2.128-6.81s-2.128,1.971-2.128,6.81.678,6.842,2.128,6.842,2.128-1.986,2.128-6.842ZM840.532,37.1c.993-1.671,1.671-2.4,2.964-2.4a2.046,2.046,0,0,1,2.018,2.081h0c0,1.2-1.04,2.16-2.507,3.2-2.191,1.529-2.869,2-3.531,2.428l-1.435-1.167c.457-.788.93-1.545,2.491-4.146Z" transform="translate(-700.721 -34.7)"/><path class="a" d="M951.966,110.757c.063-1.5.095-4.934.095-7v-2.081c0-1.829-.032-2.4-.095-3.736l-1.766-.3V96.286L957.546,94l.6.363L958.413,98v5.754c0,2.081.032,5.5.11,7Zm7.724-1.687v1.7h-9.206v-1.7l2.869-.662h3.279Zm8.733-9.506v4.193c0,2.128.031,5.5.094,7H961.96c.063-1.5.095-4.871.095-7V99.99c0-1.766-.426-2.428-1.5-2.428a5.563,5.563,0,0,0-3.8,2.506h-1.308V97.657h2.475l-1.2,1.072c2.633-3.862,4.24-4.729,6.637-4.729C966.263,94.016,968.423,95.939,968.423,99.565Zm-1.8,8.875,3.232.662v1.7H960.62v-1.718l2.759-.662Z" transform="translate(-801.215 -84.652)"/></g></g></g></svg>