<svg xmlns="http://www.w3.org/2000/svg" width="29.523" height="29.523" viewBox="0 0 29.523 29.523"><defs><style>.a{fill:#fff;}</style></defs><path class="a" d="M212.651,209.825A2.825,2.825,0,1,1,209.825,207,2.825,2.825,0,0,1,212.651,209.825Zm0,0" transform="translate(-195.064 -195.064)"/><path class="a" d="M149.042,137.439a2.807,2.807,0,0,0-1.609-1.609,4.69,4.69,0,0,0-1.574-.292c-.894-.041-1.162-.05-3.425-.05s-2.531.009-3.425.049a4.693,4.693,0,0,0-1.574.292,2.808,2.808,0,0,0-1.609,1.609,4.691,4.691,0,0,0-.292,1.574c-.041.894-.05,1.162-.05,3.425s.009,2.531.05,3.425a4.69,4.69,0,0,0,.292,1.574,2.807,2.807,0,0,0,1.609,1.609,4.685,4.685,0,0,0,1.574.292c.894.041,1.162.049,3.425.049s2.532-.009,3.425-.049a4.685,4.685,0,0,0,1.574-.292,2.807,2.807,0,0,0,1.609-1.609,4.694,4.694,0,0,0,.292-1.574c.041-.894.049-1.162.049-3.425s-.009-2.531-.049-3.425A4.684,4.684,0,0,0,149.042,137.439Zm-6.608,9.352a4.353,4.353,0,1,1,4.353-4.353A4.353,4.353,0,0,1,142.434,146.79Zm4.525-7.86a1.017,1.017,0,1,1,1.017-1.017A1.017,1.017,0,0,1,146.959,138.93Zm0,0" transform="translate(-127.672 -127.676)"/><path class="a" d="M14.761,0A14.761,14.761,0,1,0,29.523,14.761,14.763,14.763,0,0,0,14.761,0Zm8.425,18.256a6.219,6.219,0,0,1-.394,2.058,4.334,4.334,0,0,1-2.479,2.479,6.223,6.223,0,0,1-2.057.394c-.9.041-1.193.051-3.495.051s-2.591-.01-3.495-.051a6.223,6.223,0,0,1-2.057-.394A4.334,4.334,0,0,1,6.73,20.314a6.217,6.217,0,0,1-.394-2.057c-.042-.9-.051-1.193-.051-3.495s.01-2.591.051-3.495A6.22,6.22,0,0,1,6.73,9.209,4.337,4.337,0,0,1,9.209,6.73a6.225,6.225,0,0,1,2.058-.394c.9-.041,1.193-.051,3.495-.051s2.591.01,3.495.051a6.226,6.226,0,0,1,2.058.393,4.335,4.335,0,0,1,2.479,2.479,6.218,6.218,0,0,1,.394,2.058c.041.9.051,1.193.051,3.495S23.228,17.352,23.187,18.256Zm0,0"/></svg>