<svg xmlns="http://www.w3.org/2000/svg" width="113" height="113" viewBox="0 0 113 113"><defs><style>.a{fill:#c10d19;}.b{fill:#8b8b8b;}</style></defs><g transform="translate(-1 -1)"><path class="a" d="M59.534,29H93.726a5.468,5.468,0,0,1,5.468,5.468v3.645a8.967,8.967,0,0,0-5.468-1.823h-26.9ZM99.194,45.4V85.5a5.468,5.468,0,0,1-5.468,5.468H24.468A5.468,5.468,0,0,1,19,85.5V34.468A5.468,5.468,0,0,1,24.468,29H53.629a1.823,1.823,0,0,1,1.294.529L65.312,39.936H93.726A5.468,5.468,0,0,1,99.194,45.4ZM88.258,78.21a1.823,1.823,0,0,0-1.823-1.823H75.5a1.823,1.823,0,0,0,0,3.645H86.435A1.823,1.823,0,0,0,88.258,78.21Zm0-9.113a1.823,1.823,0,0,0-1.823-1.823h-16.4a1.823,1.823,0,0,0,0,3.645h16.4A1.823,1.823,0,0,0,88.258,69.1Z" transform="translate(14.806 23.032)"/><path class="b" d="M86.661,1H6.468A5.468,5.468,0,0,0,1,6.468V86.661a5.468,5.468,0,0,0,5.468,5.468H86.661a5.468,5.468,0,0,0,5.468-5.468V6.468A5.468,5.468,0,0,0,86.661,1Zm1.823,5.468V44.742H82.1l-12.94-17.26a5.468,5.468,0,0,0-8.748,0L48.387,43.521V4.645H86.661A1.823,1.823,0,0,1,88.484,6.468ZM77.548,44.742H52.032l11.3-15.073a1.823,1.823,0,0,1,2.916,0ZM6.468,4.645H44.742v40.1H4.645V6.468A1.823,1.823,0,0,1,6.468,4.645ZM4.645,86.661V48.387h40.1v40.1H6.468A1.823,1.823,0,0,1,4.645,86.661Zm82.016,1.823H48.387v-40.1h40.1V86.661A1.823,1.823,0,0,1,86.661,88.484ZM75.726,26.516a7.29,7.29,0,1,0-7.29-7.29A7.29,7.29,0,0,0,75.726,26.516Zm0-10.935a3.645,3.645,0,1,1-3.645,3.645A3.645,3.645,0,0,1,75.726,15.581Zm-63.79,0a1.823,1.823,0,0,1,1.823-1.823H35.629a1.823,1.823,0,0,1,0,3.645H13.758A1.823,1.823,0,0,1,11.935,15.581Zm0,9.113a1.823,1.823,0,0,1,1.823-1.823H35.629a1.823,1.823,0,0,1,0,3.645H13.758A1.823,1.823,0,0,1,11.935,24.694Zm0,9.113a1.823,1.823,0,0,1,1.823-1.823H24.694a1.823,1.823,0,1,1,0,3.645H13.758A1.823,1.823,0,0,1,11.935,33.806ZM35.009,65.173,19.025,57.19a3.645,3.645,0,0,0-5.267,3.262V76.418a3.645,3.645,0,0,0,5.267,3.262L35.009,71.7a3.645,3.645,0,0,0,0-6.525ZM17.4,76.418V60.453l15.966,7.983ZM68.435,55.677A12.758,12.758,0,0,0,55.677,68.435v9.113a3.645,3.645,0,0,0,3.645,3.645h1.823a3.645,3.645,0,0,0,3.645-3.645V73.9a3.645,3.645,0,0,0-3.645-3.645H59.323V68.435a9.113,9.113,0,0,1,18.226,0v1.823H75.726A3.645,3.645,0,0,0,72.081,73.9v3.645a3.645,3.645,0,0,0,3.645,3.645h1.823a3.645,3.645,0,0,0,3.645-3.645V68.435A12.758,12.758,0,0,0,68.435,55.677ZM61.145,73.9v3.645H59.323V73.9Zm16.4,3.645H75.726V73.9h1.823Z" transform="translate(0)"/></g></svg>