<svg xmlns="http://www.w3.org/2000/svg" width="102.803" height="113.817" viewBox="0 0 102.803 113.817"><defs><style>.a{fill:#c10d19;}.b{fill:#8b8b8b;}</style></defs><g transform="translate(-4 -1)"><path class="a" d="M40.85,48.372H33.507V42.865a23.865,23.865,0,0,1,47.73,0v5.507H73.894V42.865a16.522,16.522,0,0,0-33.044,0Zm45.894,9.179V94.266a5.507,5.507,0,0,1-5.507,5.507H33.507A5.507,5.507,0,0,1,28,94.266V57.551a5.507,5.507,0,0,1,5.507-5.507h47.73A5.507,5.507,0,0,1,86.744,57.551ZM71.526,67.262a1.836,1.836,0,0,0-2.607,0L57.372,78.827,49.5,70.934A1.843,1.843,0,0,0,46.89,73.54l9.179,9.179a1.836,1.836,0,0,0,2.607,0l12.85-12.85a1.836,1.836,0,0,0,0-2.607Z" transform="translate(20.058 15.044)"/><path class="b" d="M90.281,1H9.507A5.507,5.507,0,0,0,4,6.507V65.252a5.507,5.507,0,0,0,5.507,5.507H90.281a5.507,5.507,0,0,0,5.507-5.507V6.507A5.507,5.507,0,0,0,90.281,1Zm1.836,64.252a1.836,1.836,0,0,1-1.836,1.836H9.507a1.836,1.836,0,0,1-1.836-1.836V6.507A1.836,1.836,0,0,1,9.507,4.672H90.281a1.836,1.836,0,0,1,1.836,1.836ZM75.595,13.85H42.551a9.179,9.179,0,0,0,0,18.358H75.595a9.179,9.179,0,1,0,0-18.358Zm0,14.686H42.551a5.507,5.507,0,0,1,0-11.015H75.595a5.507,5.507,0,1,1,0,11.015ZM59.073,23.029a1.836,1.836,0,0,1-1.836,1.836H42.551a1.836,1.836,0,1,1,0-3.672H57.237A1.836,1.836,0,0,1,59.073,23.029Zm18.358,0a1.836,1.836,0,0,1-1.836,1.836H64.58a1.836,1.836,0,1,1,0-3.672H75.595A1.836,1.836,0,0,1,77.43,23.029ZM22.358,15.686A7.343,7.343,0,1,0,29.7,23.029,7.343,7.343,0,0,0,22.358,15.686Zm0,11.015a3.672,3.672,0,1,1,3.672-3.672A3.672,3.672,0,0,1,22.358,26.7Zm53.237,12.85H42.551a9.179,9.179,0,0,0,0,18.358H75.595a9.179,9.179,0,1,0,0-18.358Zm0,14.686H42.551a5.507,5.507,0,0,1,0-11.015H75.595a5.507,5.507,0,1,1,0,11.015ZM22.358,41.387A7.343,7.343,0,1,0,29.7,48.73,7.343,7.343,0,0,0,22.358,41.387Zm0,11.015a3.672,3.672,0,1,1,3.672-3.672A3.672,3.672,0,0,1,22.358,52.4ZM47.14,48.73A1.836,1.836,0,0,1,45.3,50.566H43.469a1.836,1.836,0,0,1,0-3.672H45.3A1.836,1.836,0,0,1,47.14,48.73Zm7.343,0a1.836,1.836,0,0,1-1.836,1.836H50.812a1.836,1.836,0,0,1,0-3.672h1.836A1.836,1.836,0,0,1,54.483,48.73Zm7.343,0a1.836,1.836,0,0,1-1.836,1.836H58.155a1.836,1.836,0,0,1,0-3.672h1.836A1.836,1.836,0,0,1,61.826,48.73Zm7.343,0a1.836,1.836,0,0,1-1.836,1.836H65.5a1.836,1.836,0,0,1,0-3.672h1.836A1.836,1.836,0,0,1,69.17,48.73Zm7.343,0a1.836,1.836,0,0,1-1.836,1.836H72.841a1.836,1.836,0,1,1,0-3.672h1.836A1.836,1.836,0,0,1,76.513,48.73Z"/></g></svg>