<svg xmlns="http://www.w3.org/2000/svg" width="109.355" height="113" viewBox="0 0 109.355 113"><defs><style>.a{fill:#c10d19;}.b{fill:#8b8b8b;}</style></defs><g transform="translate(-2 -1)"><path class="a" d="M94.371,52.452H92.45a34.523,34.523,0,0,0-10.675-23.2,5.012,5.012,0,0,0-1.64-6.124,38.2,38.2,0,0,0-44.442,0,5.018,5.018,0,0,0-1.653,6.087c-.2.193-.416.365-.618.569A34.434,34.434,0,0,0,23.38,52.452H21.468A5.468,5.468,0,0,0,16,57.919V79.79a5.468,5.468,0,0,0,5.468,5.468H23.29v5.468a5.468,5.468,0,0,0,5.468,5.468H46.984a5.468,5.468,0,0,0,5.468,5.468H63.387a5.468,5.468,0,0,0,5.468-5.468V92.548a5.468,5.468,0,0,0-5.468-5.468H52.452a5.468,5.468,0,0,0-5.468,5.468H28.758a1.823,1.823,0,0,1-1.823-1.823V85.258h1.823a5.468,5.468,0,0,0,5.468-5.468V57.919a5.468,5.468,0,0,0-5.468-5.468H27.025A30.814,30.814,0,0,1,36,32.363c.089-.089.182-.166.273-.252a4.97,4.97,0,0,0,2.79.855A5.2,5.2,0,0,0,42.074,32a27.311,27.311,0,0,1,31.689,0,5.16,5.16,0,0,0,4,.868,4.877,4.877,0,0,0,1.755-.729A30.88,30.88,0,0,1,88.8,52.452H87.081a5.468,5.468,0,0,0-5.468,5.468V79.79a5.468,5.468,0,0,0,5.468,5.468h7.29a5.468,5.468,0,0,0,5.468-5.468V57.919a5.468,5.468,0,0,0-5.468-5.468Z" transform="translate(11.516 12.339)"/><path class="a" d="M28,38V63.516a5.468,5.468,0,0,0,5.468-5.468V43.468A5.468,5.468,0,0,0,28,38Z" transform="translate(21.387 30.435)"/><path class="a" d="M52.468,38V63.516A5.468,5.468,0,0,1,47,58.048V43.468A5.468,5.468,0,0,1,52.468,38Z" transform="translate(37.016 30.435)"/><path class="b" d="M34.161,59.323A29.161,29.161,0,1,0,5,30.161,29.161,29.161,0,0,0,34.161,59.323Zm0-3.645a25.545,25.545,0,0,1-24.88-19.93c.7-1.684,3.434-7.409,8.477-7.409,4.6,0,22.64-1.094,31.23-5.765a17.916,17.916,0,0,0,4.3,9.957,10.411,10.411,0,0,0,5.807,3.011A25.554,25.554,0,0,1,34.161,55.677Zm0-51.032A25.543,25.543,0,0,1,59.677,30.161c0,.6-.049,1.187-.089,1.775A6.767,6.767,0,0,1,55.9,29.988c-3.57-3.621-3.508-10.662-3.508-10.733a1.823,1.823,0,0,0-3.111-1.318c-4.5,4.5-22.631,6.756-31.518,6.756a11.5,11.5,0,0,0-9.084,4.888A25.531,25.531,0,0,1,34.161,4.645Z" transform="translate(2.468 0)"/><path class="b" d="M67.292,41.611l-22.383-6.4a3.352,3.352,0,0,0-1.5-.21H29.849a3.4,3.4,0,0,0-1.5.21l-22.381,6.4A5.491,5.491,0,0,0,2,46.869V58.7a5.468,5.468,0,0,0,5.468,5.468H65.79A5.468,5.468,0,0,0,71.258,58.7V46.869a5.493,5.493,0,0,0-3.966-5.258ZM40.97,38.651,39.148,42.3H34.11l-1.823-3.645ZM5.645,58.7V46.869a1.823,1.823,0,0,1,1.323-1.751L28.385,39l2.645,5.285L26.16,60.522H7.468A1.823,1.823,0,0,1,5.645,58.7Zm24.321,1.823L34.34,45.941h4.578l4.374,14.581ZM67.613,58.7a1.823,1.823,0,0,1-1.823,1.823H47.1l-4.87-16.234L44.873,39l21.419,6.12a1.823,1.823,0,0,1,1.321,1.752Z" transform="translate(0 27.962)"/></g></svg>