<svg xmlns="http://www.w3.org/2000/svg" width="113.005" height="113" viewBox="0 0 113.005 113"><defs><style>.a{fill:#c10d19;}.b{fill:#8b8b8b;}</style></defs><g transform="translate(-1 -1)"><path class="a" d="M43,22.421H68.517v7.291H43Z" transform="translate(34.552 17.623)"/><path class="a" d="M83.857,16.422H32.823A1.822,1.822,0,0,0,31,18.244c0,.183.005,65.824,0,65.633a1.889,1.889,0,0,0,1.145,1.676l38.626,15.373a5.471,5.471,0,0,0,7.489-4.988l.023-1.371.979.186a5.469,5.469,0,0,0,6.489-5.446L85.7,85.345a5.407,5.407,0,0,0,3.624-5.13V21.889a5.464,5.464,0,0,0-5.467-5.467Zm-41.922,61.2A1.821,1.821,0,0,1,40.113,75.8V23.712a1.822,1.822,0,0,1,3.645,0V75.8a1.822,1.822,0,0,1-1.823,1.822Zm9.113-53.906H80.212a1.822,1.822,0,0,1,1.822,1.823V36.471a1.822,1.822,0,0,1-1.822,1.822H51.05a1.821,1.821,0,0,1-1.822-1.822V25.535a1.822,1.822,0,0,1,1.823-1.822ZM82.034,43.761a1.822,1.822,0,0,1-1.823,1.822H51.05a1.822,1.822,0,1,1,0-3.645H80.212a1.822,1.822,0,0,1,1.822,1.822ZM49.227,51.052A1.822,1.822,0,0,1,51.05,49.23H80.212a1.822,1.822,0,1,1,0,3.645H51.049a1.821,1.821,0,0,1-1.822-1.822ZM74.743,72.924a1.821,1.821,0,0,1-1.822,1.823h-16.4a1.822,1.822,0,1,1,0-3.645h16.4a1.815,1.815,0,0,1,1.822,1.822Zm-.124,22.953a1.821,1.821,0,0,1-2.5,1.662L52.19,89.606l22.463,4.27Zm5.327-4.7L51.064,85.682h31l.051,3.674a1.824,1.824,0,0,1-2.164,1.817Z" transform="translate(24.68 12.687)"/><g transform="translate(1 1)"><path class="b" d="M17.823,29.227H39.695A1.823,1.823,0,0,0,41.517,27.4V12.823A1.823,1.823,0,0,0,39.695,11H17.823A1.823,1.823,0,0,0,16,12.823V27.4A1.823,1.823,0,0,0,17.823,29.227Zm1.823-14.581H37.872V25.581H19.645Z" transform="translate(11.34 7.227)"/><path class="b" d="M11.936,92.133h54.68a5.474,5.474,0,0,0,5.468-5.468V83.02h3.645A5.474,5.474,0,0,0,81.2,77.552V15.582a5.474,5.474,0,0,0-5.468-5.468H22.707A10.93,10.93,0,0,0,1,11.936V81.2A10.948,10.948,0,0,0,11.936,92.133Zm56.5-5.468a1.825,1.825,0,0,1-1.823,1.823H11.936A7.291,7.291,0,1,1,19.227,81.2a1.823,1.823,0,0,0,1.823,1.823H68.438Zm9.113-71.084v61.97a1.825,1.825,0,0,1-1.823,1.823H22.872V13.759H75.729A1.825,1.825,0,0,1,77.552,15.582ZM11.936,4.646a7.3,7.3,0,0,1,7.291,7.291V73.069a10.869,10.869,0,0,0-14.581,0V11.936a7.3,7.3,0,0,1,7.291-7.291Z" transform="translate(-1 -1)"/><path class="b" d="M34.823,14.645h9.113a1.823,1.823,0,1,0,0-3.645H34.823a1.823,1.823,0,1,0,0,3.645Z" transform="translate(25.325 7.227)"/><path class="b" d="M34.823,22.645h9.113a1.823,1.823,0,1,0,0-3.645H34.823a1.823,1.823,0,0,0,0,3.645Z" transform="translate(25.325 13.809)"/><path class="b" d="M34.823,18.645h9.113a1.823,1.823,0,1,0,0-3.645H34.823a1.823,1.823,0,0,0,0,3.645Z" transform="translate(25.325 10.518)"/><path class="b" d="M17.823,28.645h40.1a1.823,1.823,0,1,0,0-3.645h-40.1a1.823,1.823,0,0,0,0,3.645Z" transform="translate(11.34 18.745)"/><path class="b" d="M17.823,32.645h40.1a1.823,1.823,0,1,0,0-3.645h-40.1a1.823,1.823,0,0,0,0,3.645Z" transform="translate(11.34 22.035)"/><path class="b" d="M17.823,36.645h40.1a1.823,1.823,0,1,0,0-3.645h-40.1a1.823,1.823,0,0,0,0,3.645Z" transform="translate(11.34 25.326)"/><path class="b" d="M17.823,40.645h40.1a1.823,1.823,0,1,0,0-3.645h-40.1a1.823,1.823,0,1,0,0,3.645Z" transform="translate(11.34 28.616)"/></g></g></svg>