<svg xmlns="http://www.w3.org/2000/svg" width="29.523" height="29.523" viewBox="0 0 29.523 29.523"><defs><style>.a{fill:#fff;}</style></defs><path class="a" d="M39.969,43.657,46.6,40.221l-6.627-3.457Z" transform="translate(-27.897 -25.66)"/><path class="a" d="M14.761,0A14.761,14.761,0,1,0,29.523,14.761,14.762,14.762,0,0,0,14.761,0ZM24.819,19.689a2.633,2.633,0,0,1-2.253,2.048,69.9,69.9,0,0,1-7.8.289,69.93,69.93,0,0,1-7.806-.289A2.631,2.631,0,0,1,4.7,19.689a22.315,22.315,0,0,1-.363-4.927,22.314,22.314,0,0,1,.368-4.927A2.632,2.632,0,0,1,6.959,7.786,70,70,0,0,1,14.765,7.5a69.973,69.973,0,0,1,7.8.289,2.633,2.633,0,0,1,2.253,2.048,22.312,22.312,0,0,1,.36,4.927A22.314,22.314,0,0,1,24.819,19.689Z"/></svg>