<svg xmlns="http://www.w3.org/2000/svg" width="37.042" height="37.042" viewBox="0 0 37.042 37.042"><defs><style>.a{fill:#fff;}</style></defs><path class="a" d="M31.617,5.425A18.521,18.521,0,0,0,5.424,31.617,18.521,18.521,0,0,0,31.617,5.425ZM9.285,32.005a9.378,9.378,0,0,1,18.472,0,16.315,16.315,0,0,1-18.472,0ZM12.631,16.2a5.889,5.889,0,1,1,5.889,5.889A5.9,5.9,0,0,1,12.631,16.2Zm17,14.3a11.567,11.567,0,0,0-6.724-7.549,8.059,8.059,0,1,0-8.783,0A11.565,11.565,0,0,0,7.4,30.5a16.35,16.35,0,1,1,22.231,0Zm0,0" transform="translate(0)"/></svg>